<svg id="Layer_1" height="512" viewBox="0 0 55 55" width="512" xmlns="http://www.w3.org/2000/svg" data-name="Layer 1"><rect fill="#ededed" height="24.96" rx="2.88" width="36.14" x="9.43" y="26.54"/><path d="m15.48 51.5h-3.16a2.88 2.88 0 0 1 -2.89-2.88v-19.2a2.88 2.88 0 0 1 2.89-2.88h3.16a2.88 2.88 0 0 0 -2.88 2.88v19.2a2.88 2.88 0 0 0 2.88 2.88z" fill="#dbd8dd"/><path d="m39.52 51.5h3.16a2.88 2.88 0 0 0 2.89-2.88v-19.2a2.88 2.88 0 0 0 -2.89-2.88h-3.16a2.88 2.88 0 0 1 2.88 2.88v19.2a2.88 2.88 0 0 1 -2.88 2.88z" fill="#dbd8dd"/><g fill="#556065"><path d="m40.65 27.29h-5a.74.74 0 0 1 -.75-.75v-9.89a7.4 7.4 0 1 0 -14.79 0v9.89a.75.75 0 0 1 -.75.75h-5a.74.74 0 0 1 -.75-.75v-9.89a13.9 13.9 0 1 1 27.79 0v9.89a.75.75 0 0 1 -.75.75zm-4.25-1.5h3.5v-9.14a12.4 12.4 0 1 0 -24.79 0v9.14h3.5v-9.14a8.9 8.9 0 1 1 17.79 0z"/><path d="m27.5 43.48a.76.76 0 0 1 -.75-.75v-3a.75.75 0 1 1 1.5 0v3a.75.75 0 0 1 -.75.75z"/><path d="m27.5 36a1.87 1.87 0 1 0 1.87 1.86 1.86 1.86 0 0 0 -1.87-1.86z"/><path d="m27.5 40.48a2.62 2.62 0 1 1 2.62-2.62 2.62 2.62 0 0 1 -2.62 2.62zm0-3.73a1.12 1.12 0 1 0 1.12 1.11 1.11 1.11 0 0 0 -1.12-1.11z"/><path d="m42.69 52.25h-30.38a3.64 3.64 0 0 1 -3.63-3.63v-19.19a3.64 3.64 0 0 1 3.63-3.64h30.38a3.64 3.64 0 0 1 3.63 3.64v19.19a3.64 3.64 0 0 1 -3.63 3.63zm-30.38-25a2.14 2.14 0 0 0 -2.13 2.14v19.23a2.14 2.14 0 0 0 2.13 2.13h30.38a2.14 2.14 0 0 0 2.13-2.13v-19.19a2.14 2.14 0 0 0 -2.13-2.14z"/></g></svg>